<?xml version="1.0" standalone="no"?><svg xmlns="http://www.w3.org/2000/svg" viewBox="0 0 1440 320"><path fill="#000b76" fill-opacity="1" d="M0,128L17.1,128C34.3,128,69,128,103,112C137.1,96,171,64,206,80C240,96,274,160,309,197.3C342.9,235,377,245,411,245.3C445.7,245,480,235,514,240C548.6,245,583,267,617,240C651.4,213,686,139,720,128C754.3,117,789,171,823,192C857.1,213,891,203,926,165.3C960,128,994,64,1029,74.7C1062.9,85,1097,171,1131,208C1165.7,245,1200,235,1234,229.3C1268.6,224,1303,224,1337,218.7C1371.4,213,1406,203,1423,197.3L1440,192L1440,0L1422.9,0C1405.7,0,1371,0,1337,0C1302.9,0,1269,0,1234,0C1200,0,1166,0,1131,0C1097.1,0,1063,0,1029,0C994.3,0,960,0,926,0C891.4,0,857,0,823,0C788.6,0,754,0,720,0C685.7,0,651,0,617,0C582.9,0,549,0,514,0C480,0,446,0,411,0C377.1,0,343,0,309,0C274.3,0,240,0,206,0C171.4,0,137,0,103,0C68.6,0,34,0,17,0L0,0Z"></path></svg>